<?xml version="1.0" encoding="UTF-8"?>
<svg version="1.1" xmlns="http://www.w3.org/2000/svg" width="500" height="500">
<path d="M0 0 C1.93721176 0.07847485 3.8745739 0.15333066 5.81207275 0.22436523 C8.55986503 0.32787948 11.30630589 0.44943233 14.0531311 0.57580566 C15.28001144 0.61823143 15.28001144 0.61823143 16.53167725 0.66151428 C23.39722514 1.0101516 29.76769754 2.29078412 35.36953735 6.43127441 C41.58359269 14.83852576 41.64874761 25.52597292 41.6625061 35.59924316 C41.6658345 36.46712967 41.6691629 37.33501617 41.67259216 38.22920227 C41.67762751 40.05705236 41.68000155 41.88491154 41.67984009 43.71276855 C41.68201755 46.46870585 41.70018491 49.2242363 41.71914673 51.98010254 C41.81539331 81.63425979 41.81539331 81.63425979 33.24453735 90.68127441 C9.77757989 104.54811291 -34.7935906 96.96651966 -61.44296265 95.49377441 C-62.48745071 95.441371 -62.48745071 95.441371 -63.55303955 95.38790894 C-81.35008358 94.46681135 -81.35008358 94.46681135 -87.6265564 89.69299316 C-96.32874362 78.46019956 -94.66902113 63.98662825 -94.63583374 50.41809082 C-94.6304739 47.8117491 -94.63580654 45.20557966 -94.6421814 42.59924316 C-94.65672608 14.55810451 -94.65672608 14.55810451 -88.1890564 6.70861816 C-80.98008217 -0.0289245 -69.73170396 0.70234756 -60.50546265 0.18127441 C-59.79217804 0.1395813 -59.07889343 0.09788818 -58.34399414 0.05493164 C-38.83659632 -1.07221439 -19.51521589 -0.79755362 0 0 Z M-39.50546265 29.30627441 C-39.50546265 41.84627441 -39.50546265 54.38627441 -39.50546265 67.30627441 C-27.93880809 60.70644345 -27.93880809 60.70644345 -16.7124939 53.65393066 C-14.50546265 52.30627441 -14.50546265 52.30627441 -11.50546265 51.30627441 C-11.50546265 50.64627441 -11.50546265 49.98627441 -11.50546265 49.30627441 C-10.18546265 48.97627441 -8.86546265 48.64627441 -7.50546265 48.30627441 C-10.30401009 45.01386566 -13.7121954 43.27064495 -17.50546265 41.30627441 C-18.49546265 41.30627441 -19.48546265 41.30627441 -20.50546265 41.30627441 C-20.50546265 40.64627441 -20.50546265 39.98627441 -20.50546265 39.30627441 C-21.91874394 38.48789999 -23.3362461 37.67681222 -24.75546265 36.86877441 C-25.5443689 36.41631348 -26.33327515 35.96385254 -27.14608765 35.49768066 C-29.29379732 34.41315839 -31.15751326 33.77478725 -33.50546265 33.30627441 C-33.50546265 32.64627441 -33.50546265 31.98627441 -33.50546265 31.30627441 C-35.48546265 30.64627441 -37.46546265 29.98627441 -39.50546265 29.30627441 Z " fill="#F00914" transform="translate(115.50546264648438,192.6937255859375)"/>
<path d="M0 0 C4.29 0 8.58 0 13 0 C13.33 8.91 13.66 17.82 14 27 C15.32 26.01 16.64 25.02 18 24 C23.43931813 22.85949781 26.77762547 22.78049083 32 25 C32 25.66 32 26.32 32 27 C32.66 27 33.32 27 34 27 C37.26847674 32.44746123 37.12684438 38.77803918 37.1328125 44.96484375 C37.13410156 46.25970703 37.13539063 47.55457031 37.13671875 48.88867188 C37.13462402 49.55439209 37.1325293 50.2201123 37.13037109 50.90600586 C37.1250226 52.92895027 37.13033337 54.95167181 37.13671875 56.97460938 C37.11878206 75.0099487 37.11878206 75.0099487 34 80 C33.34 80 32.68 80 32 80 C32 80.66 32 81.32 32 82 C27.54691247 84.96872502 23.2242544 84.64000837 18 84 C15.53434454 82.92186168 14.05895699 81.78071956 12 80 C12 81.32 12 82.64 12 84 C7.71 84 3.42 84 -1 84 C-2.00835666 79.96657336 -2.10224516 76.41746357 -2.03759766 72.30981445 C-2.02559578 71.15554962 -2.02559578 71.15554962 -2.01335144 69.97796631 C-1.98551547 67.4396455 -1.95002723 64.90149894 -1.9140625 62.36328125 C-1.89229192 60.60019818 -1.87084243 58.83711111 -1.84970093 57.07402039 C-1.80424019 53.38287128 -1.75501555 49.69179658 -1.703125 46.00073242 C-1.63675173 41.25917295 -1.57954203 36.51755518 -1.52509499 31.77584553 C-1.48235569 28.13768041 -1.43490728 24.49958864 -1.38599777 20.86150169 C-1.36303629 19.11233531 -1.34153469 17.36314916 -1.32149124 15.61394691 C-1.2928354 13.17653815 -1.25788514 10.73930113 -1.22119141 8.30200195 C-1.2138649 7.57317307 -1.20653839 6.84434418 -1.19898987 6.09342957 C-1.11427892 1.11427892 -1.11427892 1.11427892 0 0 Z M17 33 C12.63548959 37.77368326 12.58821858 41.67052182 12.80078125 47.99609375 C12.83252441 48.6185498 12.86426758 49.24100586 12.89697266 49.88232422 C13.01598344 52.32853175 13.09145817 54.77475984 13.16796875 57.22265625 C13.2351553 59.04433901 13.30416397 60.86595549 13.375 62.6875 C13.40553467 63.57324707 13.43606934 64.45899414 13.4675293 65.37158203 C13.506604 66.20157715 13.54567871 67.03157227 13.5859375 67.88671875 C13.6173584 68.63139404 13.6487793 69.37606934 13.68115234 70.14331055 C13.85776995 72.24258751 13.85776995 72.24258751 16 74 C18.60280568 73.67958603 18.60280568 73.67958603 21 73 C22.83193673 65.50220428 23.30736766 58.38910776 23.25 50.6875 C23.26160156 49.10098633 23.26160156 49.10098633 23.2734375 47.48242188 C23.27085937 46.46083984 23.26828125 45.43925781 23.265625 44.38671875 C23.26336914 43.47108154 23.26111328 42.55544434 23.25878906 41.61206055 C22.97300468 38.72752556 22.30315544 36.58493365 21 34 C18.95894361 33.11306697 18.95894361 33.11306697 17 33 Z " fill="#323232" transform="translate(364,195)"/>
<path d="M0 0 C6.93 0.495 6.93 0.495 14 1 C14 16.84 14 32.68 14 49 C16.31 49 18.62 49 21 49 C21 33.16 21 17.32 21 1 C25.95 1 30.9 1 36 1 C37.40027356 43.43368668 37.40027356 43.43368668 36 60 C32.37 60 28.74 60 25 60 C24.67 58.68 24.34 57.36 24 56 C23.34 56 22.68 56 22 56 C22 56.66 22 57.32 22 58 C16.41931047 60.96845188 12.17243936 61.72227241 6 60 C2.53878826 57.83674266 1.29258402 56.87775207 0 53 C-0.0878506 51.26654193 -0.11764814 49.52986731 -0.11352539 47.79418945 C-0.11344986 46.73331619 -0.11337433 45.67244293 -0.11329651 44.579422 C-0.10813522 43.43559555 -0.10297394 42.2917691 -0.09765625 41.11328125 C-0.0962413 39.94113571 -0.09482635 38.76899017 -0.09336853 37.56132507 C-0.08776388 33.81169093 -0.07521056 30.06211615 -0.0625 26.3125 C-0.0574856 23.77278732 -0.05292259 21.2330737 -0.04882812 18.69335938 C-0.03779294 12.46221665 -0.02052515 6.2311184 0 0 Z " fill="#2C2C2C" transform="translate(253,219)"/>
<path d="M0 0 C6.93 0.495 6.93 0.495 14 1 C14 16.84 14 32.68 14 49 C16.31 49 18.62 49 21 49 C21 33.16 21 17.32 21 1 C25.62 1 30.24 1 35 1 C35.95900822 14.03364609 36.1221162 26.99755252 36.0625 40.0625 C36.05746832 42.00846237 36.0529084 43.95442602 36.04882812 45.90039062 C36.03796995 50.60029287 36.02080013 55.30013168 36 60 C32.04 60 28.08 60 24 60 C23.67 58.68 23.34 57.36 23 56 C22.34 56.639375 21.68 57.27875 21 57.9375 C17.39691664 60.41461981 14.309802 61.2126278 10 61 C5.31799058 59.5416692 2.51252062 58.22833532 0 54 C-0.36076355 51.46893311 -0.36076355 51.46893311 -0.34057617 48.58886719 C-0.34034958 47.50804871 -0.34012299 46.42723022 -0.33988953 45.31365967 C-0.32440567 44.15312073 -0.30892181 42.99258179 -0.29296875 41.796875 C-0.28872391 40.60394836 -0.28447906 39.41102173 -0.28010559 38.1819458 C-0.26331023 34.37106781 -0.22565518 30.56071822 -0.1875 26.75 C-0.17245433 24.1666743 -0.15876572 21.58334032 -0.14648438 19 C-0.11340369 12.66646301 -0.06161433 6.3333211 0 0 Z " fill="#313131" transform="translate(322,219)"/>
<path d="M0 0 C4.62 0 9.24 0 14 0 C14.391875 2.10375 14.78375 4.2075 15.1875 6.375 C16.93276609 15.39390719 19.44473416 24.18281786 22 33 C22.10546143 32.42145264 22.21092285 31.84290527 22.31958008 31.24682617 C27.61111111 2.38888889 27.61111111 2.38888889 30 0 C32.35313555 -0.07271741 34.70833668 -0.08370868 37.0625 -0.0625 C38.35285156 -0.05347656 39.64320313 -0.04445312 40.97265625 -0.03515625 C41.97167969 -0.02355469 42.97070312 -0.01195312 44 0 C41.96984686 8.32476203 39.86197586 16.62021624 37.5625 24.875 C37.35568604 25.63176025 37.14887207 26.38852051 36.93579102 27.16821289 C35.91921593 30.85735253 34.84890682 34.50169248 33.60546875 38.12109375 C28.96704465 52.15834309 29.11025096 66.34664518 29 81 C24.38 81 19.76 81 15 81 C14.99742187 79.36675781 14.99484375 77.73351562 14.9921875 76.05078125 C14.81444147 62.15398635 13.28584909 50.15968273 8.95166016 36.99365234 C7.21368585 31.52647919 5.69725731 25.99558151 4.17068481 20.46646118 C3.6350681 18.53628198 3.08802582 16.60928501 2.54077148 14.68237305 C2.21020752 13.49812744 1.87964355 12.31388184 1.5390625 11.09375 C1.24209473 10.03865234 0.94512695 8.98355469 0.63916016 7.89648438 C0 5 0 5 0 0 Z " fill="#303030" transform="translate(171,198)"/>
<path d="M0 0 C4.66643264 4.31645019 6.33758817 9.34607599 6.67700195 15.54541016 C6.73169847 18.94269558 6.77657267 22.33916638 6.79516602 25.73681641 C6.80663817 27.19329582 6.82701413 28.64973478 6.85668945 30.10595703 C7.03025628 38.63691196 7.15141439 46.78676017 2.5 54.3125 C-3.01210876 59.1209353 -8.35808573 59.79669758 -15.5 59.3125 C-20.38478718 58.06843435 -24.41833869 56.46089022 -27.5 52.3125 C-32.92801135 39.74236846 -32.50502615 19.41527185 -28.5390625 6.53515625 C-26.29234104 1.72919945 -23.14850226 0.02361862 -18.3125 -2.0625 C-11.82623303 -3.12582245 -5.96529407 -2.87612393 0 0 Z M-14.0625 8.75 C-17.68834964 15.21347109 -16.71064748 24.27389414 -16.75 31.5 C-16.770625 32.45841797 -16.79125 33.41683594 -16.8125 34.40429688 C-16.84249985 39.83051966 -16.51273574 43.59519009 -13.5 48.3125 C-11.02733235 47.96805119 -11.02733235 47.96805119 -8.5 47.3125 C-6.9553337 44.22316741 -7.3162005 40.95800875 -7.296875 37.56640625 C-7.29117493 36.79948959 -7.28547485 36.03257294 -7.27960205 35.24241638 C-7.2701514 33.61922588 -7.26361781 31.99601618 -7.25976562 30.37280273 C-7.25005149 27.88816971 -7.21902654 25.40436097 -7.1875 22.91992188 C-7.18097073 21.34375492 -7.17571996 19.76758204 -7.171875 18.19140625 C-7.1533548 17.07566978 -7.1533548 17.07566978 -7.13446045 15.93739319 C-7.13887038 11.87845824 -7.13887038 11.87845824 -8.89550781 8.32006836 C-11.23171811 6.85300508 -12.01998376 6.87088506 -14.0625 8.75 Z " fill="#2D2D2D" transform="translate(240.5,220.6875)"/>
<path d="M0 0 C3.1132201 4.55864372 4.12432332 7.38939654 4.09765625 12.8828125 C4.09443359 14.04941406 4.09121094 15.21601563 4.08789062 16.41796875 C4.07532227 18.25294922 4.07532227 18.25294922 4.0625 20.125 C4.05798828 21.35605469 4.05347656 22.58710938 4.04882812 23.85546875 C4.03701341 26.90366639 4.0190775 29.95183916 4 33 C-2.6 33 -9.2 33 -16 33 C-16 37.29 -16 41.58 -16 46 C-14.35 46 -12.7 46 -11 46 C-10.34 43.03 -9.68 40.06 -9 37 C-4.71 37 -0.42 37 4 37 C4.48556876 46.95415959 4.48556876 46.95415959 2.375 51.5 C-2.18981803 56.30507161 -6.9585473 57.5959808 -13.40234375 58.0625 C-18.97104577 57.92851619 -23.43191331 56.52787934 -27.4375 52.625 C-30.56749883 47.36660197 -31.31757794 42.99386127 -31.3359375 36.91796875 C-31.3425943 36.14495926 -31.3492511 35.37194977 -31.35610962 34.57551575 C-31.3662055 32.94416674 -31.37092759 31.3127767 -31.37060547 29.68139648 C-31.37496826 27.20551221 -31.41128845 24.73142749 -31.44921875 22.25585938 C-31.45508997 20.66406853 -31.45905732 19.07226931 -31.4609375 17.48046875 C-31.47530853 16.74998825 -31.48967957 16.01950775 -31.50448608 15.26689148 C-31.45717624 9.85409559 -30.15105191 5.4579322 -27 1 C-19.77266012 -4.96474045 -7.45929003 -6.32909457 0 0 Z M-15 6 C-17.45391569 9.68087353 -17.22802759 12.44355588 -17.125 16.6875 C-17.11597656 17.38939453 -17.10695313 18.09128906 -17.09765625 18.81445312 C-17.07413704 20.54311525 -17.03826713 22.27160145 -17 24 C-14.36 24 -11.72 24 -9 24 C-8.94602665 21.5622037 -8.90634384 19.12560315 -8.875 16.6875 C-8.85824219 15.99720703 -8.84148437 15.30691406 -8.82421875 14.59570312 C-8.78782206 10.82864604 -8.85621136 9.21568296 -11 6 C-12.32 6 -13.64 6 -15 6 Z " fill="#303030" transform="translate(437,222)"/>
<path d="M0 0 C12.87 0 25.74 0 39 0 C39 3.63 39 7.26 39 11 C34.71 11 30.42 11 26 11 C26 34.1 26 57.2 26 81 C21.38 81 16.76 81 12 81 C12 57.9 12 34.8 12 11 C8.04 11 4.08 11 0 11 C0 7.37 0 3.74 0 0 Z " fill="#262626" transform="translate(288,198)"/>
<path d="M0 0 C0.99 0 1.98 0 3 0 C4.70447099 4.44589536 5.24709107 8.1158103 5.23046875 12.8671875 C5.22853516 14.16527344 5.22660156 15.46335938 5.22460938 16.80078125 C5.21530396 17.8055249 5.21530396 17.8055249 5.20581055 18.83056641 C5.18761255 20.8624335 5.18530094 22.89384125 5.18554688 24.92578125 C5.10479418 43.03232931 5.10479418 43.03232931 2 48 C1.34 48 0.68 48 0 48 C0 48.66 0 49.32 0 50 C-4.46045341 52.97363561 -8.76864097 52.62597458 -14 52 C-16.59988437 50.95213786 -17.89695594 49.93252697 -20 48 C-20 47.34 -20 46.68 -20 46 C-18.35 45.34 -16.7 44.68 -15 44 C-15.33 43.34 -15.66 42.68 -16 42 C-13.525 41.505 -13.525 41.505 -11 41 C-9.95837825 31.05444965 -9.96982609 21.26252346 -10.21484375 11.27539062 C-10.22902344 10.12103516 -10.24320312 8.96667969 -10.2578125 7.77734375 C-10.2798877 6.73827881 -10.30196289 5.69921387 -10.32470703 4.62866211 C-10 2 -10 2 -8.70263672 0.11938477 C-5.85768466 -1.751006 -3.2009791 -0.62876375 0 0 Z " fill="#2C2C2C" transform="translate(396,227)"/>
<path d="M0 0 C3.63820044 -0.33074549 5.3773086 -0.48805542 8.3125 1.8125 C11.19040605 5.54311895 11.11908694 8.63448078 11.09765625 13.19921875 C11.09443359 14.40771484 11.09121094 15.61621094 11.08789062 16.86132812 C11.07951172 18.12396484 11.07113281 19.38660156 11.0625 20.6875 C11.05798828 21.96173828 11.05347656 23.23597656 11.04882812 24.54882812 C11.03702883 27.6992387 11.01909318 30.84962519 11 34 C3.74 34 -3.52 34 -11 34 C-10.34 32.68 -9.68 31.36 -9 30 C-8.67 29.01 -8.34 28.02 -8 27 C-5.69 27 -3.38 27 -1 27 C-1.04600342 26.44014404 -1.09200684 25.88028809 -1.1394043 25.3034668 C-1.33861807 22.76579383 -1.51330991 20.22700811 -1.6875 17.6875 C-1.79674805 16.36588867 -1.79674805 16.36588867 -1.90820312 15.01757812 C-1.96298828 14.17001953 -2.01777344 13.32246094 -2.07421875 12.44921875 C-2.13182373 11.66893311 -2.18942871 10.88864746 -2.2487793 10.0847168 C-1.93238754 7.43342216 -0.89504525 6.78469687 1 5 C0.76956136 2.34533951 0.76956136 2.34533951 0 0 Z " fill="#252525" transform="translate(429,220)"/>
<path d="M0 0 C1.98 0 3.96 0 6 0 C6.33 2.64 6.66 5.28 7 8 C7.61875 7.175 8.2375 6.35 8.875 5.5 C9.57625 4.675 10.2775 3.85 11 3 C11.66 3 12.32 3 13 3 C13.33 2.01 13.66 1.02 14 0 C16.31 0 18.62 0 21 0 C20.34 1.32 19.68 2.64 19 4 C18.34 4 17.68 4 17 4 C16.31379969 5.32338632 15.65213539 6.65949948 15 8 C14.5875 8.804375 14.175 9.60875 13.75 10.4375 C12.80426417 13.66876409 13.49113919 15.06610398 15 18 C15.66 18 16.32 18 17 18 C19 21 19 21 19 24 C19.66 24 20.32 24 21 24 C21 24.99 21 25.98 21 27 C18.16073075 27.05794427 16.58744151 27.04896278 14 26 C11.30273007 23.24024505 9.13289964 20.20907393 7 17 C6.67 20.3 6.34 23.6 6 27 C4.02 27 2.04 27 0 27 C-0.6888091 17.86533168 -1.30192693 9.11348853 0 0 Z " fill="#7B7B7B" transform="translate(459,183)"/>
<path d="M0 0 C11 0 11 0 16 1 C16 1.66 16 2.32 16 3 C16.66 3 17.32 3 18 3 C19.61588379 6.23176757 19.57451407 9.50615283 19 13 C17 16 17 16 14 18 C11.19269313 18.39956124 8.85846006 18.24224238 6 18 C6.020625 19.299375 6.04125 20.59875 6.0625 21.9375 C6.08399454 23.29165633 6.07148199 24.64756083 6 26 C5.67 26.33 5.34 26.66 5 27 C3.35 27 1.7 27 0 27 C0 18.09 0 9.18 0 0 Z M6 5 C6 7.64 6 10.28 6 13 C9.465 12.505 9.465 12.505 13 12 C13.33 11.01 13.66 10.02 14 9 C12.29107501 5.68539295 12.29107501 5.68539295 8.875 5.3125 C7.92625 5.209375 6.9775 5.10625 6 5 Z " fill="#9A9A9A" transform="translate(437,183)"/>
<path d="M0 0 C0.99 0 1.98 0 3 0 C1.64065946 4.44875085 -0.06387221 6.51852814 -4 9 C-31.7896284 17.94920237 -67.02062556 13.78555601 -95.9375 12.1875 C-96.98198807 12.13509659 -96.98198807 12.13509659 -98.0475769 12.08163452 C-105.82876898 11.67891387 -112.79495846 11.08565425 -120 8 C-120.33 7.34 -120.66 6.68 -121 6 C-120.08734375 6.19916016 -120.08734375 6.19916016 -119.15625 6.40234375 C-110.79543974 8.08680111 -102.4976283 8.59484332 -94 9 C-94 9.66 -94 10.32 -94 11 C-85.15109114 10.89265501 -76.30226961 10.780054 -67.45351505 10.66066074 C-63.34509583 10.60539417 -59.23666954 10.55196835 -55.12817383 10.50268555 C-51.16646874 10.45509687 -47.20485282 10.40275633 -43.24325371 10.34705925 C-41.72854253 10.32661069 -40.21380688 10.30790183 -38.69905281 10.29092598 C-36.58451574 10.26693701 -34.47014865 10.2368755 -32.35571289 10.20532227 C-31.14992081 10.18977798 -29.94412872 10.1742337 -28.70179749 10.15821838 C-26.08365624 10.30517617 -26.08365624 10.30517617 -25 9 C-22.41242474 8.78732258 -19.84206806 8.6232145 -17.25 8.5 C-12.76138639 8.28202776 -8.38978041 8.036956 -4 7 C-3.67 5.35 -3.34 3.7 -3 2 C-2.01 2.33 -1.02 2.66 0 3 C0 2.01 0 1.02 0 0 Z " fill="#DC464A" transform="translate(150,276)"/>
<path d="M0 0 C0 0.33 0 0.66 0 1 C-9.06726816 1.02327552 -18.13452588 1.04099208 -27.20181751 1.05181217 C-31.41312028 1.05700794 -35.62440244 1.06404482 -39.83569336 1.07543945 C-43.90760688 1.08638673 -47.97950072 1.09230167 -52.05142784 1.09487724 C-53.59697466 1.09671032 -55.14252052 1.10028936 -56.68805885 1.10573006 C-65.17421104 1.13438751 -73.55814242 0.99737144 -82 0 C-82 -0.33 -82 -0.66 -82 -1 C-54.70602346 -3.44945943 -27.29851881 -1.40529067 0 0 Z " fill="#D63035" transform="translate(139,194)"/>
<path d="M0 0 C3.65316671 1.24976756 4.78065836 1.67098753 7 5 C7.804375 5.309375 8.60875 5.61875 9.4375 5.9375 C12.35755 7.14825244 13.3342248 8.36982863 15 11 C13.02 10.34 11.04 9.68 9 9 C9 8.34 9 7.68 9 7 C8.071875 6.7834375 8.071875 6.7834375 7.125 6.5625 C5 6 5 6 3 5 C3.33 17.21 3.66 29.42 4 42 C5.485 41.505 5.485 41.505 7 41 C7 42.65 7 44.3 7 46 C6.01 46.495 6.01 46.495 5 47 C5 46.34 5 45.68 5 45 C3.02 45 1.04 45 -1 45 C-0.67 44.34 -0.34 43.68 0 43 C0.08918777 41.61090696 0.11759541 40.21763093 0.11352539 38.82568359 C0.11344986 37.96494232 0.11337433 37.10420105 0.11329651 36.21737671 C0.10813522 35.28712677 0.10297394 34.35687683 0.09765625 33.3984375 C0.0962413 32.44683746 0.09482635 31.49523743 0.09336853 30.51480103 C0.08776012 27.46816903 0.07520619 24.42160987 0.0625 21.375 C0.05748608 19.31250106 0.05292299 17.25000097 0.04882812 15.1875 C0.03778796 10.12497183 0.02051767 5.06249827 0 0 Z " fill="#E73C41" transform="translate(73,217)"/>
<path d="M0 0 C2 2 2 2 2 5 C-0.31 5 -2.62 5 -5 5 C-5 7.97 -5 10.94 -5 14 C-3.02 14 -1.04 14 1 14 C-1.17424117 16.50037734 -2.73045798 17.43628586 -6 18 C-6 20.31 -6 22.62 -6 25 C-6.99 25 -7.98 25 -9 25 C-9 17.08 -9 9.16 -9 1 C-4.545 0.505 -4.545 0.505 0 0 Z " fill="#4A4A4A" transform="translate(447,183)"/>
<path d="M0 0 C0.66 0 1.32 0 2 0 C2.66 1.65 3.32 3.3 4 5 C4.66 5 5.32 5 6 5 C8 8 8 8 8 11 C8.66 11 9.32 11 10 11 C10 11.99 10 12.98 10 14 C6.8125 14 6.8125 14 3 13 C0.65251621 10.61913966 -0.88590223 8.15265963 -2 5 C-1.3125 2 -1.3125 2 0 0 Z " fill="#747474" transform="translate(470,196)"/>
<path d="M0 0 C1.65 0 3.3 0 5 0 C5 0.66 5 1.32 5 2 C5.66 2 6.32 2 7 2 C8.60725635 5.21451269 8.05748185 8.43612536 8 12 C6.68 11.67 5.36 11.34 4 11 C4 11.66 4 12.32 4 13 C3.34 13 2.68 13 2 13 C1.896875 11.88625 1.79375 10.7725 1.6875 9.625 C1.460625 8.42875 1.23375 7.2325 1 6 C0.01 5.34 -0.98 4.68 -2 4 C-1.01 4 -0.02 4 1 4 C0.67 2.68 0.34 1.36 0 0 Z " fill="#6F6F6F" transform="translate(448,184)"/>
<path d="M0 0 C2.97 0 5.94 0 9 0 C7 2 7 2 1 3 C1 17.52 1 32.04 1 47 C0.67 47 0.34 47 0 47 C0 31.49 0 15.98 0 0 Z " fill="#171717" transform="translate(344,220)"/>
<path d="M0 0 C2 2 2 2 2 5 C-0.64 5 -3.28 5 -6 5 C-5.95875 6.11375 -5.9175 7.2275 -5.875 8.375 C-6 12 -6 12 -8 14 C-8.33 9.71 -8.66 5.42 -9 1 C-2.1640625 0.0234375 -2.1640625 0.0234375 0 0 Z " fill="#555555" transform="translate(447,183)"/>
<path d="M0 0 C2.31 0 4.62 0 7 0 C6.34 1.32 5.68 2.64 5 4 C4.34 4 3.68 4 3 4 C2.71125 4.639375 2.4225 5.27875 2.125 5.9375 C1 8 1 8 -1 9 C-1 8.34 -1 7.68 -1 7 C-2.32 7.33 -3.64 7.66 -5 8 C-4.34 6.35 -3.68 4.7 -3 3 C-2.34 3 -1.68 3 -1 3 C-0.67 2.01 -0.34 1.02 0 0 Z " fill="#676767" transform="translate(473,183)"/>
<path d="M0 0 C0 0.66 0 1.32 0 2 C-0.66 2 -1.32 2 -2 2 C-2 2.66 -2 3.32 -2 4 C-2.99 4.495 -2.99 4.495 -4 5 C-4 6.65 -4 8.3 -4 10 C-5.65 10 -7.3 10 -9 10 C-9 10.99 -9 11.98 -9 13 C-9.66 12.67 -10.32 12.34 -11 12 C-9.23333586 6.99445161 -6.30842074 0 0 0 Z " fill="#DF383C" transform="translate(34,196)"/>
<path d="M0 0 C-0.3125 2.375 -0.3125 2.375 -1 5 C-4 7 -4 7 -7.1875 6.625 C-8.115625 6.41875 -9.04375 6.2125 -10 6 C-4.4 0 -4.4 0 0 0 Z " fill="#E32F36" transform="translate(90,252)"/>
<path d="M0 0 C0.66 0 1.32 0 2 0 C2 3.63 2 7.26 2 11 C-2.62 11 -7.24 11 -12 11 C-12 10.67 -12 10.34 -12 10 C-8.04 10 -4.08 10 0 10 C-0.185625 8.535625 -0.37125 7.07125 -0.5625 5.5625 C-0.75462854 4.04681929 -0.91062197 2.52519276 -1 1 C-0.67 0.67 -0.34 0.34 0 0 Z " fill="#474747" transform="translate(325,198)"/>
<path d="M0 0 C1.37478516 0.01740234 1.37478516 0.01740234 2.77734375 0.03515625 C3.69644531 0.04417969 4.61554688 0.05320312 5.5625 0.0625 C6.27277344 0.07410156 6.98304688 0.08570313 7.71484375 0.09765625 C4.63346671 3.17903329 1.64224109 3.07047579 -2.6171875 3.1953125 C-3.76574219 3.18371094 -4.91429688 3.17210937 -6.09765625 3.16015625 C-7.25910156 3.15113281 -8.42054687 3.14210938 -9.6171875 3.1328125 C-10.49761719 3.12121094 -11.37804687 3.10960937 -12.28515625 3.09765625 C-12.28515625 2.76765625 -12.28515625 2.43765625 -12.28515625 2.09765625 C-11.32802734 2.00677734 -11.32802734 2.00677734 -10.3515625 1.9140625 C-9.11212891 1.78837891 -9.11212891 1.78837891 -7.84765625 1.66015625 C-7.02394531 1.57894531 -6.20023437 1.49773437 -5.3515625 1.4140625 C-2.82680995 1.02747468 -2.62280976 0.11208589 0 0 Z " fill="#D63C3E" transform="translate(127.28515625,284.90234375)"/>
<path d="M0 0 C0 0.66 0 1.32 0 2 C2.64 2 5.28 2 8 2 C8 2.33 8 2.66 8 3 C5.79173622 3.02722517 3.58337362 3.04649729 1.375 3.0625 C0.14523438 3.07410156 -1.08453125 3.08570313 -2.3515625 3.09765625 C-5.67723791 3.00863924 -8.74047588 2.63686087 -12 2 C-12 1.67 -12 1.34 -12 1 C-7.95858806 0.36605303 -4.0934693 -0.12404452 0 0 Z " fill="#D73E42" transform="translate(56,285)"/>
<path d="M0 0 C2.0625 0.4375 2.0625 0.4375 4 1 C3.34 1 2.68 1 2 1 C2.020625 2.299375 2.04125 3.59875 2.0625 4.9375 C2.08399454 6.29165633 2.07148199 7.64756083 2 9 C1 10 1 10 -1.5625 10.0625 C-2.366875 10.041875 -3.17125 10.02125 -4 10 C-4 9.34 -4 8.68 -4 8 C-2.68 8 -1.36 8 0 8 C-0.2784375 6.2984375 -0.2784375 6.2984375 -0.5625 4.5625 C-0.706875 3.386875 -0.85125 2.21125 -1 1 C-0.67 0.67 -0.34 0.34 0 0 Z " fill="#818181" transform="translate(441,200)"/>
<path d="M0 0 C1.65 0 3.3 0 5 0 C5 0.66 5 1.32 5 2 C5.66 2 6.32 2 7 2 C7 2.66 7 3.32 7 4 C6.34 4 5.68 4 5 4 C3.36323743 5.9600281 3.36323743 5.9600281 2 8 C1.67 7.34 1.34 6.68 1 6 C0.01 5.34 -0.98 4.68 -2 4 C-1.01 4 -0.02 4 1 4 C0.67 2.68 0.34 1.36 0 0 Z " fill="#858585" transform="translate(448,184)"/>
<path d="M0 0 C1.98 0 3.96 0 6 0 C6.44534366 6.95230941 6.67289916 11.59696035 2 17 C1.67 15.68 1.34 14.36 1 13 C1.66 13 2.32 13 3 13 C3 12.01 3 11.02 3 10 C3.66 10 4.32 10 5 10 C5 7.03 5 4.06 5 1 C3.35 1 1.7 1 0 1 C0 0.67 0 0.34 0 0 Z " fill="#737373" transform="translate(435,259)"/>
<path d="M0 0 C2.31 0 4.62 0 7 0 C6.67 0.66 6.34 1.32 6 2 C3.9375 2.625 3.9375 2.625 2 3 C2 5.31 2 7.62 2 10 C1.01 10 0.02 10 -1 10 C-0.67 6.7 -0.34 3.4 0 0 Z " fill="#5A5A5A" transform="translate(439,198)"/>
<path d="M0 0 C0.33 0 0.66 0 1 0 C1.12375 1.0725 1.2475 2.145 1.375 3.25 C1.90974123 6.45844739 2.47716789 8.2398668 4 11 C4.36784131 12.3242287 4.71202981 13.65613912 5 15 C2.04293831 12.42204878 0.21677113 10.75869897 -0.875 6.9375 C-0.98666359 4.31340554 -0.85235411 2.46235631 0 0 Z " fill="#DD343B" transform="translate(24,267)"/>
<path d="M0 0 C0.33 0.66 0.66 1.32 1 2 C1.66 2 2.32 2 3 2 C4.42944945 4.35438733 5.08661261 5.48032433 4.625 8.25 C4.41875 8.8275 4.2125 9.405 4 10 C2.35 8.68 0.7 7.36 -1 6 C-0.34 5.34 0.32 4.68 1 4 C0.34 3.67 -0.32 3.34 -1 3 C-0.67 2.01 -0.34 1.02 0 0 Z " fill="#555555" transform="translate(395,220)"/>
<path d="M0 0 C0.66 0.33 1.32 0.66 2 1 C2 1.99 2 2.98 2 4 C2.99 4 3.98 4 5 4 C5 4.66 5 5.32 5 6 C2.69 5.67 0.38 5.34 -2 5 C-2.33 3.68 -2.66 2.36 -3 1 C-2.01 0.67 -1.02 0.34 0 0 Z " fill="#616161" transform="translate(475,204)"/>
<path d="M0 0 C0.66 0 1.32 0 2 0 C2 3.63 2 7.26 2 11 C0.35 10.67 -1.3 10.34 -3 10 C-2.01 9.67 -1.02 9.34 0 9 C0 6.03 0 3.06 0 0 Z " fill="#8A8A8A" transform="translate(463,199)"/>
<path d="M0 0 C0.33 0 0.66 0 1 0 C1.06058594 1.12019531 1.12117187 2.24039063 1.18359375 3.39453125 C1.26801424 4.86719984 1.35266149 6.33985544 1.4375 7.8125 C1.47681641 8.55048828 1.51613281 9.28847656 1.55664062 10.04882812 C1.74381035 13.23071342 1.98720793 15.96162378 3 19 C2.01 19.33 1.02 19.66 0 20 C0 13.4 0 6.8 0 0 Z " fill="#161616" transform="translate(211,240)"/>
<path d="M0 0 C-0.33 0.99 -0.66 1.98 -1 3 C-6.28 2.67 -11.56 2.34 -17 2 C-17 1.67 -17 1.34 -17 1 C-14.54171921 0.83252588 -12.08338135 0.6659856 -9.625 0.5 C-8.92632812 0.45230469 -8.22765625 0.40460938 -7.5078125 0.35546875 C-2.2265625 0 -2.2265625 0 0 0 Z " fill="#DA4E50" transform="translate(74,192)"/>
<path d="M0 0 C2.97 0 5.94 0 9 0 C9 1.65 9 3.3 9 5 C5.54074837 3.7508258 2.85306797 2.32472205 0 0 Z " fill="#E33D43" transform="translate(101,236)"/>
<path d="M0 0 C0.99 0.66 1.98 1.32 3 2 C2.67 3.32 2.34 4.64 2 6 C0.35 5.67 -1.3 5.34 -3 5 C-1.125 1.125 -1.125 1.125 0 0 Z " fill="#202020" transform="translate(182,225)"/>
<path d="M0 0 C0.66 0.33 1.32 0.66 2 1 C1.07038578 2.15224028 0.1309875 3.29659176 -0.8125 4.4375 C-1.59560547 5.39462891 -1.59560547 5.39462891 -2.39453125 6.37109375 C-4 8 -4 8 -7 9 C-5.64978174 4.58110387 -3.73884332 2.65654657 0 0 Z " fill="#515151" transform="translate(219,220)"/>
<path d="M0 0 C1.32 0 2.64 0 4 0 C3.67 2.31 3.34 4.62 3 7 C2.01 6.67 1.02 6.34 0 6 C0 4.02 0 2.04 0 0 Z " fill="#595959" transform="translate(460,184)"/>
<path d="M0 0 C0 1.65 0 3.3 0 5 C-0.99 5.495 -0.99 5.495 -2 6 C-2 5.34 -2 4.68 -2 4 C-3.98 4 -5.96 4 -8 4 C-6.4425489 0.88509781 -3.40085499 0 0 0 Z " fill="#E71C26" transform="translate(80,258)"/>
<path d="M0 0 C3.96 0 7.92 0 12 0 C8.06769671 2.62153553 4.67664739 3 0 3 C0 2.01 0 1.02 0 0 Z " fill="#171717" transform="translate(323,220)"/>
<path d="M0 0 C1.134375 0.020625 2.26875 0.04125 3.4375 0.0625 C2.04374928 2.85000144 0.27505139 2.95516287 -2.5625 4.0625 C-3.2225 4.7225 -3.8825 5.3825 -4.5625 6.0625 C-4.605221 4.39638095 -4.60313832 2.72867115 -4.5625 1.0625 C-3.5625 0.0625 -3.5625 0.0625 0 0 Z " fill="#7C7C7C" transform="translate(476.5625,182.9375)"/>
<path d="M0 0 C0.99 0.33 1.98 0.66 3 1 C2.67 2.98 2.34 4.96 2 7 C1.34 7 0.68 7 0 7 C-0.38133299 5.0085944 -0.71325582 3.00720923 -1 1 C-0.67 0.67 -0.34 0.34 0 0 Z " fill="#222222" transform="translate(236,269)"/>
<path d="M0 0 C3.44216672 2.6598561 3.99504674 5.90288286 5 10 C2.525 9.01 2.525 9.01 0 8 C0 5.36 0 2.72 0 0 Z " fill="#E14E56" transform="translate(150,199)"/>
<path d="M0 0 C3.63 0.33 7.26 0.66 11 1 C11 1.33 11 1.66 11 2 C9.02 2.33 7.04 2.66 5 3 C5 3.66 5 4.32 5 5 C3.68 4.67 2.36 4.34 1 4 C0.67 2.68 0.34 1.36 0 0 Z " fill="#161616" transform="translate(171,198)"/>
<path d="M0 0 C2.31 0 4.62 0 7 0 C6.67 0.99 6.34 1.98 6 3 C3.69 3.33 1.38 3.66 -1 4 C-0.67 2.68 -0.34 1.36 0 0 Z " fill="#626262" transform="translate(440,185)"/>
<path d="M0 0 C0.99 0.66 1.98 1.32 3 2 C0.24075815 3.80411967 -0.88972103 4.0127245 -4.25 3.625 C-5.1575 3.41875 -6.065 3.2125 -7 3 C-4.66785852 1.79371992 -2.50357861 0.8345262 0 0 Z " fill="#464646" transform="translate(238,275)"/>
<path d="M0 0 C0.33 0.66 0.66 1.32 1 2 C-0.65 2.66 -2.3 3.32 -4 4 C-4 4.66 -4 5.32 -4 6 C-5.65 6 -7.3 6 -9 6 C-7.6875 4.5 -7.6875 4.5 -6 3 C-5.01 3 -4.02 3 -3 3 C-3 2.34 -3 1.68 -3 1 C-2.01 0.67 -1.02 0.34 0 0 Z " fill="#DD474D" transform="translate(107,241)"/>
<path d="M0 0 C6.52307692 1.47692308 6.52307692 1.47692308 8.9375 4.125 C9.288125 4.74375 9.63875 5.3625 10 6 C8.02 5.34 6.04 4.68 4 4 C4 3.34 4 2.68 4 2 C2.68 1.67 1.36 1.34 0 1 C0 0.67 0 0.34 0 0 Z " fill="#DC4450" transform="translate(78,222)"/>
<path d="M0 0 C2.475 0.495 2.475 0.495 5 1 C4.34 2.98 3.68 4.96 3 7 C1.25372522 4.38058783 0.61277612 2.96175123 0 0 Z " fill="#1E1E1E" transform="translate(429,220)"/>
<path d="M0 0 C0.33 0 0.66 0 1 0 C1 1.65 1 3.3 1 5 C0.34 5 -0.32 5 -1 5 C-1 5.66 -1 6.32 -1 7 C-1.66 7 -2.32 7 -3 7 C-2.25 2.25 -2.25 2.25 0 0 Z " fill="#646464" transform="translate(453,190)"/>
<path d="M0 0 C1.52299523 2.93720508 2.80100302 5.9168649 4 9 C3.34 9.66 2.68 10.32 2 11 C0.19769832 7.17010894 -0.19622241 4.21878192 0 0 Z " fill="#888888" transform="translate(406,261)"/>
<path d="M0 0 C0 0.99 0 1.98 0 3 C-3 5 -3 5 -5.1875 4.625 C-5.785625 4.41875 -6.38375 4.2125 -7 4 C-4.69 2.68 -2.38 1.36 0 0 Z " fill="#DC5154" transform="translate(97,247)"/>
</svg>
